# xmcd CD database file
#
# Track frame offsets:
#	150
#	22645
#	58155
#	87087
#	108767
#	132502
#	148260
#	167285
#	194221
#
# Disc length: 2911 seconds
#
# Revision: 0
# Processed by: cddbd v1.5.2PL0 Copyright (c) Steve Scherf et al.
# Submitted via: jetAudio 7
#
DISCID=760b5d09
DTITLE=餘亦五  - 敦煌
DYEAR=1900
DGENRE=장르 없음
TTITLE0=古都鬧市
TTITLE1=壁畫印象
TTITLE2=大漠、古長城
TTITLE3=戈壁灘、海市蜃樓
TTITLE4=沙海駝鈴
TTITLE5=莫高大佛
TTITLE6=西出陽關
TTITLE7=飛天
TTITLE8=鳴沙山與月牙泉
EXTD=
EXTT0=
EXTT1=
EXTT2=
EXTT3=
EXTT4=
EXTT5=
EXTT6=
EXTT7=
EXTT8=
PLAYORDER=
